<svg width="35" height="35" viewBox="0 0 35 35" fill="none" xmlns="http://www.w3.org/2000/svg">
<path d="M32.0833 8.74267C32.0833 7.94058 31.4329 7.29163 30.6323 7.29163L18.9511 7.29162C18.5662 7.29162 18.1971 7.4445 17.925 7.71662C17.6529 7.98875 17.5 8.35783 17.5 8.74267C17.5 9.12751 17.6529 9.49658 17.925 9.76871C18.1971 10.0408 18.5662 10.1937 18.9511 10.1937L30.6323 10.1937C31.0171 10.1937 31.3862 10.0408 31.6583 9.76871C31.9305 9.49659 32.0833 9.12751 32.0833 8.74267V8.74267Z" fill="black"/>
<path d="M32.0833 17.5C32.0833 16.6979 31.4329 16.049 30.6323 16.049L4.36772 16.0489C3.98288 16.0489 3.6138 16.2018 3.34168 16.4739C3.06955 16.7461 2.91668 17.1151 2.91668 17.5C2.91668 17.8848 3.06955 18.2539 3.34168 18.526C3.6138 18.7981 3.98288 18.951 4.36772 18.951L30.6323 18.951C31.0171 18.951 31.3862 18.7982 31.6583 18.526C31.9305 18.2539 32.0833 17.8848 32.0833 17.5V17.5Z" fill="black"/>
<path d="M30.6323 24.8063C31.0171 24.8063 31.3862 24.9592 31.6583 25.2313C31.9305 25.5034 32.0833 25.8725 32.0833 26.2573C32.0833 26.6422 31.9305 27.0112 31.6583 27.2834C31.3862 27.5555 31.0171 27.7084 30.6323 27.7084L13.1177 27.7084C12.7329 27.7084 12.3638 27.5555 12.0917 27.2834C11.8196 27.0112 11.6667 26.6422 11.6667 26.2573C11.6667 25.8725 11.8196 25.5034 12.0917 25.2313C12.3638 24.9591 12.7329 24.8063 13.1177 24.8063L30.6323 24.8063Z" fill="black"/>
</svg>
